<svg xmlns="http://www.w3.org/2000/svg" viewBox="0 0 180 180" fill="none">
  <rect width="180" height="180" rx="36" fill="#f19435"/>
  <path d="M90 30C56.86 30 30 56.86 30 90s26.86 60 60 60 60-26.86 60-60-26.86-60-60-60zm0 108c-26.51 0-48-21.49-48-48s21.49-48 48-48 48 21.49 48 48-21.49 48-48 48z" fill="white"/>
  <path d="M90 54c-19.88 0-36 16.12-36 36s16.12 36 36 36 36-16.12 36-36-16.12-36-36-36zm0 60c-13.25 0-24-10.75-24-24s10.75-24 24-24 24 10.75 24 24-10.75 24-24 24z" fill="white"/>
  <circle cx="90" cy="90" r="12" fill="white"/>
</svg>
